# xmcd
#
# Track frame offsets:
#	150
#	24017
#	46587
#	65907
#	88217
#	107942
#	126785
#	147535
#	167452
#	188702
#	208782
#	226622
#
# Disc length: 3324 seconds
#
# Revision: 1
# Processed by: cddbd v1.5.2PL0 Copyright (c) Steve Scherf et al.
# Submitted via: EZCDAudioConverter 8.0.2.1
#
DISCID=9f0cfa0c
DTITLE=Various Artist - st. Vũ Thành An. Đừng Yêu Tôi
DYEAR=2002
DGENRE=Contemporary Folk
TTITLE0=Tuấn Ngọc, Khánh Hà - LK Vũ Thành An
TTITLE1=Khánh Ly - Em đến thăm anh đêm 30
TTITLE2=Thế Sơn - Một lần nào cho tôi gặp lại em
TTITLE3=Ý Lan - Bài không tên số 6
TTITLE4=Thanh Hà - Tình khúc thứ nhất
TTITLE5=Trần Đức - Tình khúc thứ nhất
TTITLE6=Don Hồ, Thanh Hà - LK Bài không tên số 2, 3, cuối cùng
TTITLE7=Lưu Bích - Đừng Yêu Tôi
TTITLE8=Trần Thái Hòa - Bài không tên số 8
TTITLE9=Nguyễn Hưng - Bài không tên số 15
TTITLE10=Hoa Mi - Bài không tên số 3
TTITLE11=Khánh Ly, Vũ Thành An - Đời đá vàng
EXTD=
EXTT0=
EXTT1=
EXTT2=
EXTT3=
EXTT4=
EXTT5=
EXTT6=
EXTT7=
EXTT8=
EXTT9=
EXTT10=
EXTT11=
PLAYORDER=
